<?xml version="1.0" encoding="utf-8"?>
<!-- Uploaded to: SVG Repo, www.svgrepo.com, Generator: SVG Repo Mixer Tools -->
<svg fill="#000000" width="800px" height="800px" viewBox="-5.5 0 32 32" version="1.1" xmlns="http://www.w3.org/2000/svg">
<title>bag</title>
<path d="M21.25 12.063v3.75c-2.969 1.094-6.656 1.719-10.625 1.719s-7.656-0.625-10.625-1.719v-3.75c0-0.688 0.563-1.25 1.25-1.25h5.156v-0.938c0-1.438 1.188-2.656 2.656-2.656h3.125c1.469 0 2.656 1.219 2.656 2.656v0.938h5.156c0.688 0 1.25 0.563 1.25 1.25zM7.969 9.875v0.938h5.313v-0.938c0-0.594-0.5-1.094-1.094-1.094h-3.125c-0.594 0-1.094 0.5-1.094 1.094zM9.063 15.594v0.625c0 0.188 0.125 0.313 0.313 0.313h2.5c0.188 0 0.313-0.125 0.313-0.313v-0.625c0-0.188-0.125-0.313-0.313-0.313h-2.5c-0.188 0-0.313 0.125-0.313 0.313zM0 23.969v-6.813c3 1.031 6.656 1.625 10.625 1.625s7.625-0.594 10.625-1.625v6.813c0 0.688-0.563 1.25-1.25 1.25h-18.75c-0.688 0-1.25-0.563-1.25-1.25zM12.188 20.75v-0.625c0-0.188-0.125-0.313-0.313-0.313h-2.5c-0.188 0-0.313 0.125-0.313 0.313v0.625c0 0.188 0.125 0.313 0.313 0.313h2.5c0.188 0 0.313-0.125 0.313-0.313z"></path>
</svg>